<?xml version="1.0" encoding="UTF-8" standalone="no"?>
<svg
  xmlns="http://www.w3.org/2000/svg"
  style="display:inline;enable-background:new"
  version="1.0"
  height="48"
  width="48">
  <title>Kopypast Config Icon</title>
  <path d="M4 6V42H44V6H4Z" fill="url(#a)"/>
  <path d="M43.9999 38H4V42H43.9999V38Z" fill="#FFFFFF" fill-opacity="0.82"/>
  <path d="M41 41C41.552 41 42 40.552 42 40 42 39.448 41.552 39 41 39 40.448 39 40 39.448 40 40 40 40.552 40.448 41 41 41ZM37 39 38 41H36L37 39ZM6 39V40H7V39H6ZM7 40V41H8V40H7Z" fill="#40464F"/>
  <path d="M29.5742 15.9375L29.5137 16.1445L27.2832 16.2285L15 17.0176L25.4512 27.4688L21.8965 27.4141L20.4824 29.6582L18.7969 30.5703L15.7793 29.7324L28.0469 42H44V27.0117L33.002 16.0117L29.7715 16.1348L29.5742 15.9375Z" fill="url(#b)" opacity="0.15"/>
  <path d="M25.5 13C24.6593 13.0012 23.847 13.3051 23.2119 13.8559C22.5768 14.4068 22.1611 15.1679 22.041 16H15V17H22.0391C22.1592 17.8325 22.5751 18.5938 23.2107 19.1447C23.8462 19.6956 24.6589 19.9992 25.5 20C26.3407 19.9988 27.153 19.6949 27.7881 19.1441C28.4232 18.5932 28.8389 17.8321 28.959 17H33V16H28.9609C28.8408 15.1675 28.4249 14.4062 27.7893 13.8553C27.1538 13.3044 26.3411 13.0008 25.5 13ZM18.5 24C17.5717 24 16.6815 24.3687 16.0251 25.0251C15.3687 25.6815 15 26.5717 15 27.5C15 28.4283 15.3687 29.3185 16.0251 29.9749C16.6815 30.6313 17.5717 31 18.5 31C19.3407 30.9988 20.153 30.6949 20.7881 30.1441C21.4232 29.5932 21.8389 28.8321 21.959 28H33V27H21.9609C21.8408 26.1675 21.4249 25.4062 20.7893 24.8553C20.1538 24.3044 19.3411 24.0008 18.5 24ZM18.5 25C19.163 25 19.7989 25.2634 20.2678 25.7322C20.7366 26.2011 21 26.837 21 27.5C21 28.163 20.7366 28.7989 20.2678 29.2678C19.7989 29.7366 19.163 30 18.5 30C17.837 30 17.2011 29.7366 16.7322 29.2678C16.2634 28.7989 16 28.163 16 27.5C16 26.837 16.2634 26.2011 16.7322 25.7322C17.2011 25.2634 17.837 25 18.5 25Z" fill="url(#c)"/>
  <defs>
    <linearGradient id="a" x1="33.8427" x2="18.6924" y1="37.6827" y2="8.67551" gradientUnits="userSpaceOnUse">
      <stop stop-color="#14458F"/>
      <stop stop-color="#4D7DC4" offset="1"/>
    </linearGradient>
    <linearGradient id="b" x1="18.2006" x2="35.1899" y1="16.52" y2="33.5093" gradientUnits="userSpaceOnUse">
      <stop/>
      <stop stop-opacity="0" offset="1"/>
    </linearGradient>
    <linearGradient id="c" x1="18.2296" x2="32.1561" y1="12.9443" y2="30.2889" gradientUnits="userSpaceOnUse">
      <stop stop-color="#FFFFFF"/>
      <stop stop-color="#82A2E0" offset="1"/>
    </linearGradient>
  </defs>
</svg>
